<svg xmlns="http://www.w3.org/2000/svg" width="51.3" height="50.5" viewBox="0 0 51.3 50.5">
  <g id="mostlysunny.inline" transform="translate(-6.7 -7.7)">
    <path id="Path_395" data-name="Path 395" d="M35.5,15.3A1.324,1.324,0,0,1,34.2,14V9a1.3,1.3,0,1,1,2.6,0v5A1.324,1.324,0,0,1,35.5,15.3ZM19.2,31.6h-5a1.3,1.3,0,1,1,0-2.6h5a1.3,1.3,0,1,1,0,2.6Zm37.5,0h-5a1.3,1.3,0,0,1,0-2.6h5a1.3,1.3,0,0,1,0,2.6ZM47.5,20a1.086,1.086,0,0,1-.9-.4,1.391,1.391,0,0,1,0-1.9l3.5-3.5A1.344,1.344,0,1,1,52,16.1l-3.5,3.5A2.112,2.112,0,0,1,47.5,20ZM51,46.8a1.086,1.086,0,0,1-.9-.4l-3.5-3.5A1.344,1.344,0,0,1,48.5,41L52,44.5a1.391,1.391,0,0,1,0,1.9A2.112,2.112,0,0,1,51,46.8ZM24,20.2a1.086,1.086,0,0,1-.9-.4l-3.5-3.5a1.344,1.344,0,1,1,1.9-1.9L25,17.9a1.391,1.391,0,0,1,0,1.9A1.433,1.433,0,0,1,24,20.2Z" fill="#f4a71d"/>
    <path id="Path_396" data-name="Path 396" d="M33.4,58.2h-20a6.726,6.726,0,0,1-2.4-13,6.192,6.192,0,0,1,6.2-6,4.477,4.477,0,0,1,2,.4,8.668,8.668,0,0,1,15.7,5.1,4.1,4.1,0,0,1-.1,1.1,6.342,6.342,0,0,1,5,6.2,6.406,6.406,0,0,1-6.4,6.2ZM17.1,41.9a3.543,3.543,0,0,0-3.5,3.5,1.268,1.268,0,0,0,.1.6l.2,1.3-1.3.3a4.088,4.088,0,0,0,.8,8.1h20a3.6,3.6,0,0,0,0-7.2h-.2l-2,.1.6-1.9a5.822,5.822,0,0,0,.3-1.9,6.018,6.018,0,0,0-6-6A5.915,5.915,0,0,0,20.8,42l-.7,1.3-1.2-.7a2.567,2.567,0,0,0-1.8-.7Z" fill="#0069e7"/>
    <path id="Path_397" data-name="Path 397" d="M47.5,30.3a12,12,0,1,0-24,0,12.31,12.31,0,0,0,.2,2,1.283,1.283,0,0,0,1.4,1.3,1.23,1.23,0,0,0,1.1-.7,2.556,2.556,0,0,0,0-1.5,4.484,4.484,0,0,1-.1-1.1,9.35,9.35,0,1,1,18.7,0c0,.4-.1.8-.1,1.2-.1.4-.1.8-.2,1.2a13.064,13.064,0,0,1-.8,2.1,12.735,12.735,0,0,1-1.3,1.9,5.525,5.525,0,0,1-1.7,1.4,19.987,19.987,0,0,1-2.1,1,3.178,3.178,0,0,0-.9.3,1.057,1.057,0,0,0-.6.7.9.9,0,0,0-.1.5A1.5,1.5,0,0,0,38.4,42a12.057,12.057,0,0,0,9.1-11.7Z" fill="#f4a71d"/>
  </g>
</svg>
