<svg xmlns="http://www.w3.org/2000/svg" width="52.7" height="34.7" viewBox="0 0 52.7 34.7">
  <path id="cloudy.inline" d="M49.7,50.2H16.8a10.209,10.209,0,0,1-3.2-19.9V30a9.347,9.347,0,0,1,9.3-9.3,9.465,9.465,0,0,1,3.7.8,13.419,13.419,0,0,1,24.6,7.4,19.418,19.418,0,0,1-.2,2.4,9.5,9.5,0,0,1,8.3,9.4,9.714,9.714,0,0,1-9.6,9.5ZM22.9,23.4A6.659,6.659,0,0,0,16.3,30a4.484,4.484,0,0,0,.1,1.1l.2,1.3-1.3.2A7.6,7.6,0,0,0,9.2,40a7.49,7.49,0,0,0,7.5,7.5H49.6a6.8,6.8,0,1,0,0-13.6h-.3l-2,.1.6-1.9a12.573,12.573,0,0,0,.5-3.3,10.725,10.725,0,0,0-20.2-5l-.7,1.3-1.2-.7a5.887,5.887,0,0,0-3.4-1Z" transform="translate(-6.6 -15.5)" fill="#0069e7"/>
</svg>
