<svg xmlns="http://www.w3.org/2000/svg" width="52.8" height="53.546" viewBox="0 0 52.8 53.546">
  <g id="nt_chanceflurries.inline" transform="translate(-6.6 -6.2)">
    <path id="Path_398" data-name="Path 398" d="M51,22a19.419,19.419,0,0,0,.2-2.4,13.419,13.419,0,0,0-24.6-7.4,9.465,9.465,0,0,0-3.7-.8,9.347,9.347,0,0,0-9.3,9.3V21a10.209,10.209,0,0,0,3.2,19.9h5c1.6,0,1.5-2.7,0-2.7h-5a7.572,7.572,0,0,1-1.5-15l1.3-.2-.2-1.3a4.484,4.484,0,0,1-.1-1.1A6.594,6.594,0,0,1,22.9,14a6.434,6.434,0,0,1,3.5,1l1.2.7.7-1.3a10.755,10.755,0,0,1,20.3,5,12.573,12.573,0,0,1-.5,3.3l-.6,1.9,2.1-.1h.3a6.9,6.9,0,1,1,0,13.8H44.1a1.351,1.351,0,1,0,0,2.7h5.8A9.534,9.534,0,0,0,51,22Z" fill="#0069e7"/>
    <path id="Path_399" data-name="Path 399" d="M40.9,49.3a2.07,2.07,0,0,0-3.3-2.5,2.171,2.171,0,0,0,.4,2.9A2.074,2.074,0,0,0,40.9,49.3Zm-12.7,0a2.07,2.07,0,1,0-2.9.4A2.074,2.074,0,0,0,28.2,49.3Z" fill="#72b8d4"/>
    <circle id="Ellipse_8" data-name="Ellipse 8" cx="2.1" cy="2.1" r="2.1" transform="translate(29.96 57.193) rotate(-52.562)" fill="#72b8d4"/>
    <circle id="Ellipse_9" data-name="Ellipse 9" cx="2.1" cy="2.1" r="2.1" transform="translate(29.956 39.694) rotate(-52.54)" fill="#72b8d4"/>
  </g>
</svg>
