<svg xmlns="http://www.w3.org/2000/svg" width="52.8" height="52.6" viewBox="0 0 52.8 52.6">
  <g id="nt_chancetstorms.inline" transform="translate(-6.6 -6.6)">
    <path id="Path_406" data-name="Path 406" d="M50.9,22.4a19.419,19.419,0,0,0,.2-2.4A13.4,13.4,0,0,0,37.7,6.6a13.583,13.583,0,0,0-11.2,6,9.375,9.375,0,0,0-3.6-.8,9.347,9.347,0,0,0-9.3,9.3v.3a10.209,10.209,0,0,0,3.2,19.9h5c1.6,0,1.5-2.7,0-2.7h-5a7.517,7.517,0,0,1-1.4-14.9l1.3-.3-.2-1.3a4.1,4.1,0,0,1-.1-1.1A6.659,6.659,0,0,1,23,14.4a6.434,6.434,0,0,1,3.5,1l1.2.7.7-1.3a10.725,10.725,0,0,1,20.2,5,12.573,12.573,0,0,1-.5,3.3L47.5,25l2.1-.1h.3a6.8,6.8,0,0,1,0,13.6H44.2a1.351,1.351,0,1,0,0,2.7h5.7a9.56,9.56,0,0,0,9.5-9.5,9.926,9.926,0,0,0-8.5-9.3Z" fill="#0069e7"/>
    <path id="Path_407" data-name="Path 407" d="M27.2,59.2a1.854,1.854,0,0,1-.7-.2,1.3,1.3,0,0,1-.4-1.8L34,44.1H25.7L35,30.9a1.28,1.28,0,0,1,1.8-.3,1.4,1.4,0,0,1,.3,1.9l-6.4,9.1h7.9l-10.2,17a1.425,1.425,0,0,1-1.2.6Z" fill="#f4a71d"/>
  </g>
</svg>
