<svg xmlns="http://www.w3.org/2000/svg" width="42.11" height="24.263" viewBox="0 0 42.11 24.263">
  <g id="nt_fog.inline" transform="translate(-11.831 -22.037)">
    <path id="Path_412" data-name="Path 412" d="M41.7,38.5A14.937,14.937,0,0,1,33,35.8c-7.2-5.1-13.2-5.3-19.6-.9a1.012,1.012,0,1,1-1.1-1.7c7.1-4.9,14.1-4.6,21.9.9,6.2,4.4,13.3,1.9,18.2-1a1.03,1.03,0,1,1,1,1.8A22.979,22.979,0,0,1,41.7,38.5Z" fill="#0069e7"/>
    <path id="Path_413" data-name="Path 413" d="M41.7,46.3A14.937,14.937,0,0,1,33,43.6c-7.2-5.1-13.2-5.3-19.6-.9A1.012,1.012,0,1,1,12.3,41c7.1-4.9,14.1-4.6,21.9.9,6.2,4.3,13.3,1.9,18.2-1a1.03,1.03,0,1,1,1,1.8A22.979,22.979,0,0,1,41.7,46.3Zm0-15.5A14.937,14.937,0,0,1,33,28.1c-7.2-5.1-13.2-5.3-19.6-.9a1.012,1.012,0,1,1-1.1-1.7c7.1-4.9,14.1-4.6,21.9.9,6.2,4.4,13.3,1.9,18.2-1a1.03,1.03,0,1,1,1,1.8A22.979,22.979,0,0,1,41.7,30.8Z" fill="#0069e7"/>
  </g>
</svg>
